# xmcd
#
# Track frame offsets:
#	150
#	21919
#	44991
#	69293
#	83454
#	110936
#	137715
#	158128
#	179830
#	201611
#	226434
#	256866
#	298595
#
# Disc length: 4261 seconds
#
# Revision: 1
# Processed by: cddbd v1.4PL0 Copyright (c) Steve Scherf et al.
# Submitted via: CDmax 1.9
#
DISCID=c710a30d
DTITLE=Eric Clapton - 18th Hole
DYEAR=1987
DGENRE=Blues
TTITLE0=Tulsa Time
TTITLE1=Behind The Mask
TTITLE2=Walkin' The Dog
TTITLE3=Route 66
TTITLE4=Crossroads
TTITLE5=Lay Down Sally
TTITLE6=Black Magic Woman
TTITLE7=The Bear
TTITLE8=Alberta
TTITLE9=Tearin' Us Apart
TTITLE10=Ramblin' On My Mind
TTITLE11=Have You Ever Loved A Woman
TTITLE12=High Heel Sneakers
EXTD=Live at the Cranleigh Gold Club, Surrey\n27th March, 1987
EXTT0=
EXTT1=
EXTT2=
EXTT3=
EXTT4=
EXTT5=
EXTT6=
EXTT7=
EXTT8=
EXTT9=
EXTT10=
EXTT11=
EXTT12=
PLAYORDER=
